<svg viewBox="0 0 1200 640" xmlns="http://www.w3.org/2000/svg">
  <rect width="1200" height="640" fill="#0C0C0C"/>
  <text x="60" y="60" fill="#6B6868" font-size="11" letter-spacing="2"
        font-family="ui-monospace, monospace">— DELIVERY METHOD</text>
  <text x="60" y="108" fill="#F5F4EF" font-size="40" font-weight="500"
        letter-spacing="-1.2" font-family="system-ui, sans-serif">Sequential is slow.</text>
  <text x="60" y="152" fill="#C8FF00" font-size="40" font-weight="500"
        letter-spacing="-1.2" font-family="system-ui, sans-serif">Parallel ships.</text>
  <g id="traditional-track">
    <text x="60" y="222" fill="#6B6868" font-size="11" letter-spacing="2"
          font-family="ui-monospace, monospace">— TRADITIONAL · 12–24 WEEKS</text>
    <line x1="60" y1="278" x2="1140" y2="278" stroke="#6B6868"
          stroke-width="1" stroke-dasharray="3 5" opacity="0.4"/>
    <rect x="60" y="258" width="180" height="40" rx="4" fill="none" stroke="#6B6868"/>
    <text x="150" y="283" fill="#6B6868" font-size="13" text-anchor="middle"
          font-family="ui-monospace, monospace">Plan</text>
    <rect x="285" y="258" width="180" height="40" rx="4" fill="none" stroke="#6B6868"/>
    <text x="375" y="283" fill="#6B6868" font-size="13" text-anchor="middle"
          font-family="ui-monospace, monospace">Design</text>
    <rect x="510" y="258" width="180" height="40" rx="4" fill="none" stroke="#6B6868"/>
    <text x="600" y="283" fill="#6B6868" font-size="13" text-anchor="middle"
          font-family="ui-monospace, monospace">Build</text>
    <rect x="735" y="258" width="180" height="40" rx="4" fill="none" stroke="#6B6868"/>
    <text x="825" y="283" fill="#6B6868" font-size="13" text-anchor="middle"
          font-family="ui-monospace, monospace">QA</text>
    <rect x="960" y="258" width="180" height="40" rx="4" fill="none" stroke="#6B6868"/>
    <text x="1050" y="283" fill="#6B6868" font-size="13" text-anchor="middle"
          font-family="ui-monospace, monospace">Ship</text>
  </g>
  <line x1="60" y1="350" x2="1140" y2="350" stroke="#1F1F1F"/>
  <g id="bnzo-track">
    <text x="60" y="395" fill="#C8FF00" font-size="11" letter-spacing="2"
          font-family="ui-monospace, monospace">— BNZO · 2–6 WEEKS</text>
    <rect id="brief" x="60" y="478" width="140" height="40" rx="4"
          fill="none" stroke="#F5F4EF" stroke-width="1.2"/>
    <text x="130" y="503" fill="#F5F4EF" font-size="13" text-anchor="middle"
          font-family="ui-monospace, monospace">Brief</text>
    <g stroke="#C8FF00" stroke-width="1.5" fill="none" opacity="0.85">
      <path d="M 200 498 C 290 498, 330 433, 410 433"/>
      <path d="M 200 498 L 410 498"/>
      <path d="M 200 498 C 290 498, 330 563, 410 563"/>
    </g>
    <rect x="410" y="413" width="320" height="40" rx="4" fill="none"
          stroke="#C8FF00" stroke-width="1.2"/>
    <text x="430" y="438" fill="#F5F4EF" font-size="13"
          font-family="ui-monospace, monospace">Stream A · UI / Frontend</text>
    <rect x="410" y="478" width="320" height="40" rx="4" fill="none"
          stroke="#C8FF00" stroke-width="1.2"/>
    <text x="430" y="503" fill="#F5F4EF" font-size="13"
          font-family="ui-monospace, monospace">Stream B · Backend / API</text>
    <rect x="410" y="543" width="320" height="40" rx="4" fill="none"
          stroke="#C8FF00" stroke-width="1.2"/>
    <text x="430" y="568" fill="#F5F4EF" font-size="13"
          font-family="ui-monospace, monospace">Stream C · Integration / QA</text>
    <g stroke="#C8FF00" stroke-width="1.5" fill="none" opacity="0.85">
      <path d="M 730 433 C 820 433, 860 498, 940 498"/>
      <path d="M 730 498 L 940 498"/>
      <path d="M 730 563 C 820 563, 860 498, 940 498"/>
    </g>
    <rect id="ship" x="940" y="478" width="140" height="40" rx="4"
          fill="#C8FF00" stroke="#C8FF00"/>
    <text x="1010" y="504" fill="#0C0C0C" font-size="13" font-weight="600"
          text-anchor="middle" font-family="ui-monospace, monospace">Ship</text>
  </g>
</svg>
